<?xml version="1.0" encoding="UTF-8" standalone="no"?>
<!-- Generator: Adobe Illustrator 16.0.0, SVG Export Plug-In . SVG Version: 6.00 Build 0)  -->

<svg
   xmlns:dc="http://purl.org/dc/elements/1.1/"
   xmlns:cc="http://creativecommons.org/ns#"
   xmlns:rdf="http://www.w3.org/1999/02/22-rdf-syntax-ns#"
   xmlns:svg="http://www.w3.org/2000/svg"
   xmlns="http://www.w3.org/2000/svg"
   xmlns:xlink="http://www.w3.org/1999/xlink"
   xmlns:sodipodi="http://sodipodi.sourceforge.net/DTD/sodipodi-0.dtd"
   xmlns:inkscape="http://www.inkscape.org/namespaces/inkscape"
   version="1.1"
   id="圖層_1"
   x="0px"
   y="0px"
   width="200"
   height="196.57686"
   viewBox="0 0 200 196.57685"
   enable-background="new 0 0 850.39 325.98"
   xml:space="preserve"
   inkscape:version="0.48.4 r9939"
   sodipodi:docname="礦務局.svg"><metadata
   id="metadata45"><rdf:RDF><cc:Work
       rdf:about=""><dc:format>image/svg+xml</dc:format><dc:type
         rdf:resource="http://purl.org/dc/dcmitype/StillImage" /></cc:Work></rdf:RDF></metadata><defs
   id="defs43">
	
	

		<defs
   id="defs19">
			<polygon
   id="SVGID_3_"
   points="670.502,394.004 670.502,-67.078 182.707,-67.078 182.707,394.004 182.707,394.004 " />
		</defs>
		<clipPath
   id="SVGID_4_">
			<use
   xlink:href="#SVGID_3_"
   overflow="visible"
   id="use23"
   style="overflow:visible"
   x="0"
   y="0"
   width="850.39001"
   height="325.98001" />
		</clipPath>
		
	
		<defs
   id="defs7">
			<rect
   id="SVGID_1_"
   x="181.32899"
   y="-67.039001"
   width="487.79501"
   height="461.082" />
		</defs>
		<clipPath
   id="SVGID_2_">
			<use
   xlink:href="#SVGID_1_"
   overflow="visible"
   id="use11"
   style="overflow:visible"
   x="0"
   y="0"
   width="850.39001"
   height="325.98001" />
		</clipPath>
		
	
			
		
			
			
			
			
			
			
			
		</defs><sodipodi:namedview
   pagecolor="#ffffff"
   bordercolor="#666666"
   borderopacity="1"
   objecttolerance="10"
   gridtolerance="10"
   guidetolerance="10"
   inkscape:pageopacity="0"
   inkscape:pageshadow="2"
   inkscape:window-width="1440"
   inkscape:window-height="747"
   id="namedview41"
   showgrid="false"
   inkscape:zoom="1.1265419"
   inkscape:cx="102.28162"
   inkscape:cy="201.46862"
   inkscape:window-x="-8"
   inkscape:window-y="-8"
   inkscape:window-maximized="1"
   inkscape:current-layer="圖層_1"
   fit-margin-top="0"
   fit-margin-left="0"
   fit-margin-right="0"
   fit-margin-bottom="0" />

<g
   id="g3152"
   transform="matrix(0.45819014,0,0,0.45819014,-95.103091,22.565864)"><path
     id="path3081"
     transform="translate(0,-2.6855712e-6)"
     d="M 425.8125,-5.0625 C 329.68734,-5.0625 251.75,72.874834 251.75,169 c 0,76.07471 48.83125,140.73207 116.84375,164.40625 l 0,-10.71875 C 306.25396,299.47601 261.84375,239.42296 261.84375,169 261.84375,78.452913 335.26542,5.0625 425.8125,5.0625 516.35958,5.0625 589.75,78.452913 589.75,169 c 0,70.43324 -44.40428,130.48338 -106.75,153.6875 l 0,10.75 C 551.02392,309.77406 599.84375,245.08871 599.84375,169 599.84375,72.874834 521.93766,-5.0625 425.8125,-5.0625 z"
     style="fill:#ff0000;fill-opacity:1;stroke:none"
     inkscape:connector-curvature="0" /><path
     id="path3085"
     transform="translate(0,-2.6855712e-6)"
     d="m 425.8125,-49.25 c -120.53615,0 -218.25,97.713844 -218.25,218.25 0,100.73299 68.25464,185.51331 161.03125,210.65625 l 0,-29.09375 C 291.44597,326.27342 235.5,254.16951 235.5,169 c 0,-105.106698 85.20581,-190.3125 190.3125,-190.3125 105.10669,0 190.3125,85.205802 190.3125,190.3125 0,85.17998 -55.96253,157.28219 -133.125,181.5625 l 0,29.09375 C 575.79141,354.52314 644.0625,269.7435 644.0625,169 c 0,-120.536156 -97.71385,-218.25 -218.25,-218.25 z"
     style="fill:#ff0000;fill-opacity:1;stroke:none"
     inkscape:connector-curvature="0" /><g
     transform="translate(-4.42862,0)"
     id="g3130"><path
       sodipodi:nodetypes="ccccccccccc"
       clip-rule="evenodd"
       d="m 386.72199,361.629 22.24501,0 0,18.15 15.971,0 0,-63.853 -15.764,0 0,31.826 -9.714,0 0,-31.826 -12.738,0 z"
       id="path3075"
       inkscape:connector-curvature="0"
       style="fill:#000080;fill-rule:evenodd" /><path
       style="fill:#000080;fill-rule:evenodd"
       inkscape:connector-curvature="0"
       id="path39"
       d="m 473.72899,361.629 -22.24499,0 0,18.15 -15.971,0 0,-63.853 15.764,0 0,31.826 9.714,0 0,-31.826 12.738,0 z"
       clip-rule="evenodd"
       sodipodi:nodetypes="ccccccccccc" /></g><g
     transform="translate(-1.554625,0)"
     id="g3148"><path
       style="fill:#008000;fill-rule:evenodd"
       inkscape:connector-curvature="0"
       id="path31"
       d="m 472.901,80.034 86.052,146.324 -172.10101,0 z"
       clip-rule="evenodd"
       sodipodi:nodetypes="cccc" /><path
       inkscape:connector-curvature="0"
       style="fill:#000080;fill-rule:evenodd"
       d="m 381.8125,80.03125 -86.0625,146.3125 87.09375,0 42.5,-72.28125 -43.53125,-74.03125 z"
       transform="translate(0,-2.6855712e-6)"
       id="path3070" /></g></g></svg>